<svg width="336" height="343" viewBox="0 0 336 343" fill="none" xmlns="http://www.w3.org/2000/svg">
<ellipse cx="168" cy="171.5" rx="168" ry="171.5" fill="black"/>
<path d="M196.2 102.6L184 98.8C177.6 108.667 170.8 126.4 163.6 152C160.667 162.133 157.4 172.867 153.8 184.2C150.333 195.4 146.267 205.933 141.6 215.8C137.067 225.533 131.8 234.4 125.8 242.4C119.933 250.4 112.6 256.733 103.8 261.4C95 266.067 85.1333 268.4 74.2 268.4C54.6 268.4 40.3333 261.4 31.4 247.4C26.4667 239.533 24 231.067 24 222C24 218.267 24.4 214.467 25.2 210.6C28 197.667 34.3333 188.467 44.2 183C49.4 180.067 55.2 178.6 61.6 178.6C75.3333 178.6 84.6 183.933 89.4 194.6C91.4 199 92.4 203.533 92.4 208.2C92.4 212.733 91.4667 217.333 89.6 222C85.0667 233.2 77.6667 238.8 67.4 238.8C65.8 238.8 64.4667 238.467 63.4 237.8C62.3333 237 61.5333 235.867 61 234.4C64.6 234.4 68 233.467 71.2 231.6C76.5333 228.4 80.6667 222.6 83.6 214.2C84.5333 211.4 85 209.133 85 207.4C85 205.533 84.8667 203.467 84.6 201.2C84.3333 198.8 83.4667 196.067 82 193C80.5333 189.933 78 187.467 74.4 185.6C70.8 183.733 66.5333 182.8 61.6 182.8C48.9333 182.8 39.6 188.4 33.6 199.6C30.1333 206 28.4 212.067 28.4 217.8C28.4 223.533 29 228.667 30.2 233.2C33.6667 245.867 40.9333 254.6 52 259.4C57.2 261.667 63.8 262.8 71.8 262.8C79.8 262.8 87.8667 260.533 96 256C104.267 251.6 111.333 245.6 117.2 238C123.2 230.267 128.6 221.667 133.4 212.2C138.2 202.733 142.533 192.533 146.4 181.6C150.4 170.533 154 160.067 157.2 150.2C165.733 124.867 173.133 107.2 179.4 97.2C159.267 90.9333 144.667 87.8 135.6 87.8C118.4 87.8 105.6 94.3333 97.2 107.4C92.4 114.867 90 122.533 90 130.4C90 132.667 90.2667 135 90.8 137.4C92.2667 146.2 96.2 151.467 102.6 153.2C103.8 153.467 105 153.6 106.2 153.6C105.4 156.4 103.2 157.8 99.6 157.8C91.4667 157.8 85.7333 153.467 82.4 144.8C80.8 140.667 80 136.067 80 131C80 125.933 81.3333 120.267 84 114C89.6 100.533 99.4667 91.3333 113.6 86.4C120.267 84.1333 127.867 83 136.4 83C145.067 83 160.267 86.4667 182 93.4C188.533 84.0667 196 79.4 204.4 79.4C205.467 79.4 206.267 79.7333 206.8 80.4C207.333 81.0667 207.667 82 207.8 83.2C199.933 83.2 192.933 87.1333 186.8 95C192.8 96.8667 196.667 98.1333 198.4 98.8C204 89.0667 209.267 84.2 214.2 84.2C216.467 84.2 217.8 84.8667 218.2 86.2L218.4 86.8C214.667 86.8 210.733 91.7333 206.6 101.6L235.2 110.8C244.133 94 253.467 85.6 263.2 85.6C264.533 85.6 265.6 85.9333 266.4 86.6C267.2 87.2667 267.733 88.2667 268 89.6C258 89.6 248.8 97.2 240.4 112.4C247.6 114.267 252.067 115.333 253.8 115.6C261.667 100 268.733 92.2 275 92.2C277.267 92.2 278.6 92.8667 279 94.2L279.2 94.8C274.8 94.8 269.467 102.2 263.2 117C264.133 117.133 265.4 117.2 267 117.2C280.2 117.2 289.467 113.267 294.8 105.4C297.067 102.333 298.2 99.7333 298.2 97.6C298.2 91.6 295.533 88.6 290.2 88.6C291.4 86.7333 293.333 85.8 296 85.8C301.2 85.8 304.6 88.4 306.2 93.6C306.6 95.2 306.8 96.7333 306.8 98.2C306.8 102.6 304.933 106.933 301.2 111.2C294.667 118.4 284.6 122 271 122C267.8 122 264.667 121.733 261.6 121.2C255.733 136.267 250.667 153.667 246.4 173.4C242.267 193.133 240.2 210.733 240.2 226.2C240.2 241.667 243.333 249.4 249.6 249.4C248.267 252.067 246.333 253.4 243.8 253.4C233.4 253.4 228.2 242 228.2 219.2C228.2 205.733 230.333 189.733 234.6 171.2C238.867 152.533 244.667 135.267 252 119.4C248.533 118.733 244 117.6 238.4 116C232.533 127.467 226.333 144.267 219.8 166.4C213.4 188.4 207.667 206.467 202.6 220.6C197.667 234.733 192.667 241.8 187.6 241.8C177.467 241.8 172.4 229.667 172.4 205.4C172.4 190.6 174.533 173.267 178.8 153.4C183.2 133.533 189 116.6 196.2 102.6ZM185.8 213.6C185.8 224.8 187.133 230.4 189.8 230.4C192.6 230.4 196 224 200 211.2C204.133 198.4 209.2 182 215.2 162C221.333 142 227.333 126.2 233.2 114.6C221.2 110.867 211.8 107.867 205 105.6C199.133 121.333 194.267 141.667 190.4 166.6C187.333 186.733 185.8 202.4 185.8 213.6Z" fill="white"/>
</svg>
